<mxfile host="65bd71144e">
    <diagram name="Page-1" id="6xrUKxs_sgL6jlEQn35u">
        <mxGraphModel dx="664" dy="1609" grid="1" gridSize="10" guides="1" tooltips="1" connect="1" arrows="1" fold="1" page="1" pageScale="1" pageWidth="827" pageHeight="1169" math="0" shadow="0">
            <root>
                <mxCell id="0"/>
                <mxCell id="1" parent="0"/>
                <mxCell id="KW4L6DDGJd8cQO-Oj2U_-35" value="" style="rounded=0;whiteSpace=wrap;html=1;" parent="1" vertex="1">
                    <mxGeometry x="120" width="590" height="70" as="geometry"/>
                </mxCell>
                <mxCell id="KW4L6DDGJd8cQO-Oj2U_-34" value="" style="rounded=0;whiteSpace=wrap;html=1;" parent="1" vertex="1">
                    <mxGeometry x="50" y="140" width="730" height="240" as="geometry"/>
                </mxCell>
                <mxCell id="KW4L6DDGJd8cQO-Oj2U_-2" value="" style="rounded=0;whiteSpace=wrap;html=1;" parent="1" vertex="1">
                    <mxGeometry x="40" y="130" width="730" height="240" as="geometry"/>
                </mxCell>
                <mxCell id="KW4L6DDGJd8cQO-Oj2U_-18" value="" style="rounded=1;whiteSpace=wrap;html=1;" parent="1" vertex="1">
                    <mxGeometry x="351" y="290" width="120" height="60" as="geometry"/>
                </mxCell>
                <mxCell id="KW4L6DDGJd8cQO-Oj2U_-17" value="" style="rounded=1;whiteSpace=wrap;html=1;" parent="1" vertex="1">
                    <mxGeometry x="207.5" y="290" width="120" height="60" as="geometry"/>
                </mxCell>
                <mxCell id="KW4L6DDGJd8cQO-Oj2U_-16" value="" style="rounded=1;whiteSpace=wrap;html=1;" parent="1" vertex="1">
                    <mxGeometry x="70" y="290" width="120" height="60" as="geometry"/>
                </mxCell>
                <mxCell id="KW4L6DDGJd8cQO-Oj2U_-15" value="" style="rounded=1;whiteSpace=wrap;html=1;" parent="1" vertex="1">
                    <mxGeometry x="491" y="210" width="120" height="60" as="geometry"/>
                </mxCell>
                <mxCell id="KW4L6DDGJd8cQO-Oj2U_-14" value="" style="rounded=1;whiteSpace=wrap;html=1;" parent="1" vertex="1">
                    <mxGeometry x="351" y="210" width="120" height="60" as="geometry"/>
                </mxCell>
                <mxCell id="KW4L6DDGJd8cQO-Oj2U_-12" value="" style="rounded=1;whiteSpace=wrap;html=1;" parent="1" vertex="1">
                    <mxGeometry x="70" y="210" width="120" height="60" as="geometry"/>
                </mxCell>
                <mxCell id="KW4L6DDGJd8cQO-Oj2U_-13" value="" style="rounded=1;whiteSpace=wrap;html=1;" parent="1" vertex="1">
                    <mxGeometry x="210" y="210" width="120" height="60" as="geometry"/>
                </mxCell>
                <mxCell id="KW4L6DDGJd8cQO-Oj2U_-1" value="User Module" style="rounded=1;whiteSpace=wrap;html=1;" parent="1" vertex="1">
                    <mxGeometry x="60" y="200" width="120" height="60" as="geometry"/>
                </mxCell>
                <mxCell id="KW4L6DDGJd8cQO-Oj2U_-3" value="Job Module" style="rounded=1;whiteSpace=wrap;html=1;" parent="1" vertex="1">
                    <mxGeometry x="200" y="200" width="120" height="60" as="geometry"/>
                </mxCell>
                <mxCell id="KW4L6DDGJd8cQO-Oj2U_-4" value="Job Application Module" style="rounded=1;whiteSpace=wrap;html=1;" parent="1" vertex="1">
                    <mxGeometry x="343.5" y="200" width="120" height="60" as="geometry"/>
                </mxCell>
                <mxCell id="KW4L6DDGJd8cQO-Oj2U_-5" value="Prisma Module" style="rounded=1;whiteSpace=wrap;html=1;" parent="1" vertex="1">
                    <mxGeometry x="60" y="280" width="120" height="60" as="geometry"/>
                </mxCell>
                <mxCell id="KW4L6DDGJd8cQO-Oj2U_-6" value="Auth Module" style="rounded=1;whiteSpace=wrap;html=1;" parent="1" vertex="1">
                    <mxGeometry x="200" y="280" width="120" height="60" as="geometry"/>
                </mxCell>
                <mxCell id="KW4L6DDGJd8cQO-Oj2U_-7" value="User Activity Module" style="rounded=1;whiteSpace=wrap;html=1;" parent="1" vertex="1">
                    <mxGeometry x="340" y="280" width="120" height="60" as="geometry"/>
                </mxCell>
                <mxCell id="KW4L6DDGJd8cQO-Oj2U_-8" value="Resume Module" style="rounded=1;whiteSpace=wrap;html=1;" parent="1" vertex="1">
                    <mxGeometry x="481" y="200" width="120" height="60" as="geometry"/>
                </mxCell>
                <mxCell id="KW4L6DDGJd8cQO-Oj2U_-9" value="" style="rounded=0;whiteSpace=wrap;html=1;" parent="1" vertex="1">
                    <mxGeometry x="110" y="-10" width="590" height="70" as="geometry"/>
                </mxCell>
                <mxCell id="KW4L6DDGJd8cQO-Oj2U_-10" value="" style="endArrow=classic;html=1;rounded=0;entryX=0.5;entryY=1;entryDx=0;entryDy=0;exitX=0.5;exitY=0;exitDx=0;exitDy=0;" parent="1" source="KW4L6DDGJd8cQO-Oj2U_-2" target="KW4L6DDGJd8cQO-Oj2U_-9" edge="1">
                    <mxGeometry width="50" height="50" relative="1" as="geometry">
                        <mxPoint x="370" y="250" as="sourcePoint"/>
                        <mxPoint x="420" y="200" as="targetPoint"/>
                    </mxGeometry>
                </mxCell>
                <mxCell id="KW4L6DDGJd8cQO-Oj2U_-11" value="&lt;b&gt;&lt;font style=&quot;font-size: 24px;&quot;&gt;Server&lt;/font&gt;&lt;/b&gt;" style="text;html=1;strokeColor=none;fillColor=none;align=center;verticalAlign=middle;whiteSpace=wrap;rounded=0;" parent="1" vertex="1">
                    <mxGeometry x="342.5" y="150" width="125" height="30" as="geometry"/>
                </mxCell>
                <mxCell id="KW4L6DDGJd8cQO-Oj2U_-19" value="" style="image;aspect=fixed;perimeter=ellipsePerimeter;html=1;align=center;shadow=0;dashed=0;spacingTop=3;image=img/lib/active_directory/laptop_client.svg;" parent="1" vertex="1">
                    <mxGeometry x="137.5" width="45" height="50" as="geometry"/>
                </mxCell>
                <mxCell id="KW4L6DDGJd8cQO-Oj2U_-20" value="" style="image;aspect=fixed;perimeter=ellipsePerimeter;html=1;align=center;shadow=0;dashed=0;spacingTop=3;image=img/lib/active_directory/laptop_client.svg;" parent="1" vertex="1">
                    <mxGeometry x="207.5" width="45" height="50" as="geometry"/>
                </mxCell>
                <mxCell id="KW4L6DDGJd8cQO-Oj2U_-21" value="" style="image;aspect=fixed;perimeter=ellipsePerimeter;html=1;align=center;shadow=0;dashed=0;spacingTop=3;image=img/lib/active_directory/laptop_client.svg;" parent="1" vertex="1">
                    <mxGeometry x="277.5" width="45" height="50" as="geometry"/>
                </mxCell>
                <mxCell id="KW4L6DDGJd8cQO-Oj2U_-22" value="" style="image;aspect=fixed;perimeter=ellipsePerimeter;html=1;align=center;shadow=0;dashed=0;spacingTop=3;image=img/lib/active_directory/laptop_client.svg;" parent="1" vertex="1">
                    <mxGeometry x="347.5" width="45" height="50" as="geometry"/>
                </mxCell>
                <mxCell id="KW4L6DDGJd8cQO-Oj2U_-23" value="" style="image;aspect=fixed;perimeter=ellipsePerimeter;html=1;align=center;shadow=0;dashed=0;spacingTop=3;image=img/lib/active_directory/laptop_client.svg;" parent="1" vertex="1">
                    <mxGeometry x="421" width="45" height="50" as="geometry"/>
                </mxCell>
                <mxCell id="KW4L6DDGJd8cQO-Oj2U_-24" value="" style="image;aspect=fixed;perimeter=ellipsePerimeter;html=1;align=center;shadow=0;dashed=0;spacingTop=3;image=img/lib/active_directory/laptop_client.svg;" parent="1" vertex="1">
                    <mxGeometry x="491" width="45" height="50" as="geometry"/>
                </mxCell>
                <mxCell id="KW4L6DDGJd8cQO-Oj2U_-25" value="" style="image;aspect=fixed;perimeter=ellipsePerimeter;html=1;align=center;shadow=0;dashed=0;spacingTop=3;image=img/lib/active_directory/laptop_client.svg;" parent="1" vertex="1">
                    <mxGeometry x="557.5" width="45" height="50" as="geometry"/>
                </mxCell>
                <mxCell id="KW4L6DDGJd8cQO-Oj2U_-26" value="" style="image;aspect=fixed;perimeter=ellipsePerimeter;html=1;align=center;shadow=0;dashed=0;spacingTop=3;image=img/lib/active_directory/laptop_client.svg;" parent="1" vertex="1">
                    <mxGeometry x="627.5" width="45" height="50" as="geometry"/>
                </mxCell>
                <mxCell id="KW4L6DDGJd8cQO-Oj2U_-28" value="" style="image;aspect=fixed;perimeter=ellipsePerimeter;html=1;align=center;shadow=0;dashed=0;spacingTop=3;image=img/lib/active_directory/generic_server.svg;" parent="1" vertex="1">
                    <mxGeometry x="680" y="110" width="28.000000000000004" height="50" as="geometry"/>
                </mxCell>
                <mxCell id="KW4L6DDGJd8cQO-Oj2U_-29" value="" style="endArrow=classic;startArrow=classic;html=1;rounded=0;entryX=0.5;entryY=1;entryDx=0;entryDy=0;" parent="1" target="KW4L6DDGJd8cQO-Oj2U_-2" edge="1">
                    <mxGeometry width="50" height="50" relative="1" as="geometry">
                        <mxPoint x="405" y="420" as="sourcePoint"/>
                        <mxPoint x="414" y="400" as="targetPoint"/>
                    </mxGeometry>
                </mxCell>
                <mxCell id="KW4L6DDGJd8cQO-Oj2U_-30" value="" style="rounded=1;whiteSpace=wrap;html=1;" parent="1" vertex="1">
                    <mxGeometry x="350" y="430" width="120" height="60" as="geometry"/>
                </mxCell>
                <mxCell id="KW4L6DDGJd8cQO-Oj2U_-31" value="PostgreSQL" style="rounded=1;whiteSpace=wrap;html=1;" parent="1" vertex="1">
                    <mxGeometry x="340" y="420" width="120" height="60" as="geometry"/>
                </mxCell>
                <mxCell id="KW4L6DDGJd8cQO-Oj2U_-32" value="" style="image;aspect=fixed;perimeter=ellipsePerimeter;html=1;align=center;shadow=0;dashed=0;spacingTop=3;image=img/lib/active_directory/database_server.svg;" parent="1" vertex="1">
                    <mxGeometry x="439" y="390" width="41" height="50" as="geometry"/>
                </mxCell>
                <mxCell id="2" value="" style="rounded=1;whiteSpace=wrap;html=1;" vertex="1" parent="1">
                    <mxGeometry x="491" y="290" width="120" height="60" as="geometry"/>
                </mxCell>
                <mxCell id="3" value="OpenAI Module" style="rounded=1;whiteSpace=wrap;html=1;" vertex="1" parent="1">
                    <mxGeometry x="480" y="280" width="120" height="60" as="geometry"/>
                </mxCell>
                <mxCell id="4" value="" style="rounded=1;whiteSpace=wrap;html=1;" vertex="1" parent="1">
                    <mxGeometry x="630" y="215" width="120" height="60" as="geometry"/>
                </mxCell>
                <mxCell id="5" value="Generated Resume Module" style="rounded=1;whiteSpace=wrap;html=1;" vertex="1" parent="1">
                    <mxGeometry x="620" y="205" width="120" height="60" as="geometry"/>
                </mxCell>
                <mxCell id="6" value="" style="rounded=1;whiteSpace=wrap;html=1;" vertex="1" parent="1">
                    <mxGeometry x="635" y="295" width="120" height="60" as="geometry"/>
                </mxCell>
                <mxCell id="7" value="Resume Builder Module" style="rounded=1;whiteSpace=wrap;html=1;" vertex="1" parent="1">
                    <mxGeometry x="625" y="285" width="120" height="60" as="geometry"/>
                </mxCell>
            </root>
        </mxGraphModel>
    </diagram>
</mxfile>